<svg width="90" height="90" viewBox="0 0 90 90" xmlns="http://www.w3.org/2000/svg">
<path d="M16.3652 57.2695V24.5391H8.17383C3.67383 24.5391 0 28.2129 0 32.7305V81.8262C0 86.3262 3.67383 90 8.17383 90H57.2695C61.7871 90 65.4434 86.3262 65.4434 81.8262V73.6523H32.7305C23.6953 73.6348 16.3652 66.3047 16.3652 57.2695ZM81.8262 0H32.7305C28.2129 0 24.5566 3.67383 24.5566 8.17383V57.2695C24.5566 61.7871 28.2305 65.4434 32.7305 65.4434H81.8262C86.3438 65.4434 90 61.7695 90 57.2695V8.17383C90 3.67383 86.3262 0 81.8262 0ZM77.7305 36.8262H61.3652V53.1914H53.1914V36.8262H36.8262V28.6523H53.1914V12.2695H61.3652V28.6348H77.7305V36.8262V36.8262Z" />
</svg>
